<?xml version="1.0" encoding="UTF-8" standalone="no"?>
<svg
   version="1.1"
   width="1000"
   height="623"
   viewBox="0 0 1000 623"
   id="svg576"
   sodipodi:docname="logo-no-background.svg"
   inkscape:export-filename="whitelogo-no-background.svg"
   inkscape:export-xdpi="96"
   inkscape:export-ydpi="96"
   xmlns:inkscape="http://www.inkscape.org/namespaces/inkscape"
   xmlns:sodipodi="http://sodipodi.sourceforge.net/DTD/sodipodi-0.dtd"
   xmlns="http://www.w3.org/2000/svg"
   xmlns:svg="http://www.w3.org/2000/svg">
  <defs
     id="defs580" />
  <sodipodi:namedview
     id="namedview578"
     pagecolor="#ffffff"
     bordercolor="#000000"
     borderopacity="0.25"
     inkscape:showpageshadow="2"
     inkscape:pageopacity="0.0"
     inkscape:pagecheckerboard="0"
     inkscape:deskcolor="#d1d1d1"
     showgrid="false" />
  <g
     transform="translate(-0.60606061,0.25222672)"
     id="g574">
    <svg
       viewBox="0 0 396 247"
       data-background-color="#ffffff"
       preserveAspectRatio="xMidYMid"
       height="623"
       width="1000"
       version="1.1"
       id="svg572">
      <defs
         id="defs510" />
      <g
         id="tight-bounds"
         transform="translate(0.24,-0.1)">
        <svg
           viewBox="0 0 395.52 247.2"
           height="247.2"
           width="395.51999"
           version="1.1"
           id="svg567">
          <g
             id="g514">
            <svg
               version="1.1"
               id="svg512"
               width="100%"
               height="100%" />
          </g>
          <g
             id="g565">
            <svg
               viewBox="0 0 395.52 247.2"
               height="247.2"
               width="395.51999"
               version="1.1"
               id="svg563">
              <g
                 transform="translate(39.552,41.844283)"
                 id="g557">
                <svg
                   viewBox="0 0 316.416 163.51143"
                   height="163.51143"
                   width="316.41599"
                   version="1.1"
                   id="svg555">
                  <g
                     id="g553">
                    <svg
                       viewBox="0 0 317.99808 164.32899"
                       height="163.51143"
                       width="316.41599"
                       version="1.1"
                       id="svg551">
                      <g
                         id="g517">
                        <rect
                           width="317.99808"
                           height="5.0331798"
                           x="0"
                           y="90.307991"
                           fill="#ca3433"
                           opacity="1"
                           stroke-width="0"
                           stroke="transparent"
                           fill-opacity="1"
                           class="rect-o-0"
                           data-fill-palette-color="secondary"
                           rx="1%"
                           id="o-0"
                           data-palette-color="#ca3433"
                           style="fill:#ffffff" />
                      </g>
                      <g
                         transform="translate(0.79104,108.51703)"
                         id="g534">
                        <svg
                           viewBox="0 0 316.416 55.811958"
                           height="55.811958"
                           width="316.41599"
                           version="1.1"
                           id="svg532">
                          <g
                             id="g530">
                            <svg
                               viewBox="0 0 316.416 55.811958"
                               height="55.811958"
                               width="316.41599"
                               version="1.1"
                               id="svg528">
                              <g
                                 id="g526">
                                <svg
                                   viewBox="0 0 316.416 55.811958"
                                   height="55.811958"
                                   width="316.41599"
                                   version="1.1"
                                   id="svg524">
                                <g
                                   id="g522">
                                <svg
                                   width="316.41599"
                                   viewBox="3.2 -37.349998 213.44 37.649998"
                                   height="55.811958"
                                   data-palette-color="#ff0000"
                                   version="1.1"
                                   id="svg520">
                                <path
                                   d="M 10.6,0 H 3.2 v -28.55 q 0,-2.45 0.75,-4.1 0.75,-1.65 2,-2.6 1.25,-0.95 2.75,-1.35 1.5,-0.4 2.95,-0.4 v 0 q 1.8,0 4.48,0.02 2.67,0.03 5.7,0.18 3.02,0.15 5.82,0.45 v 0 6.2 H 13.7 q -1.55,0 -2.32,0.82 -0.78,0.83 -0.78,2.18 v 0 6.3 l 14.65,0.4 v 5.85 L 10.6,-14.2 Z M 54.75,0 H 41.1 Q 38.25,0 36.27,-0.88 34.3,-1.75 33.32,-3.68 32.35,-5.6 32.35,-8.75 v 0 V -37 h 7.4 v 27.05 q 0,1.2 0.42,1.95 0.43,0.75 1.18,1.02 0.75,0.28 1.7,0.28 v 0 h 11.7 z m 18.4,0.3 v 0 Q 69.34,0.3 66.5,-0.43 63.65,-1.15 61.72,-3.13 59.8,-5.1 58.85,-8.8 57.9,-12.5 57.9,-18.45 v 0 q 0,-5.95 0.97,-9.68 0.98,-3.72 2.88,-5.72 1.9,-2 4.75,-2.75 2.84,-0.75 6.65,-0.75 v 0 q 3.8,0 6.65,0.75 2.85,0.75 4.75,2.75 1.9,2 2.85,5.72 0.94,3.73 0.94,9.68 v 0 q 0,5.95 -0.94,9.65 -0.95,3.7 -2.85,5.67 -1.9,1.98 -4.75,2.7 -2.85,0.73 -6.65,0.73 z m 0,-6.65 v 0 q 2.25,0 3.75,-0.5 1.5,-0.5 2.37,-1.78 0.88,-1.27 1.28,-3.65 0.4,-2.37 0.4,-6.17 v 0 q 0,-4 -0.4,-6.4 -0.4,-2.4 -1.28,-3.68 -0.87,-1.27 -2.37,-1.72 -1.5,-0.45 -3.75,-0.45 v 0 q -2.15,0 -3.65,0.45 -1.5,0.45 -2.43,1.72 -0.92,1.28 -1.35,3.68 -0.42,2.4 -0.42,6.4 v 0 q 0,3.8 0.37,6.17 0.38,2.38 1.28,3.65 0.89,1.28 2.42,1.78 1.53,0.5 3.78,0.5 z M 121.49,0 h -8.2 l -23.1,-37 h 8.2 z M 98.54,0 h -8.2 l 12.4,-20.2 3.8,6.25 z m 23.1,-37 -12.6,20.65 -3.75,-6.25 8.2,-14.4 z m 19.2,37 h -7.4 V -30.35 H 123.29 V -37 h 27.75 v 6.65 h -10.2 z m 28.25,0.3 v 0 q -3.8,0 -6.65,-0.73 -2.85,-0.72 -4.78,-2.7 -1.92,-1.97 -2.87,-5.67 -0.95,-3.7 -0.95,-9.65 v 0 q 0,-5.95 0.97,-9.68 0.98,-3.72 2.88,-5.72 1.9,-2 4.75,-2.75 2.85,-0.75 6.65,-0.75 v 0 q 3.8,0 6.65,0.75 2.85,0.75 4.75,2.75 1.9,2 2.85,5.72 0.95,3.73 0.95,9.68 v 0 q 0,5.95 -0.95,9.65 -0.95,3.7 -2.85,5.67 -1.9,1.98 -4.75,2.7 -2.85,0.73 -6.65,0.73 z m 0,-6.65 v 0 q 2.25,0 3.75,-0.5 1.5,-0.5 2.37,-1.78 0.88,-1.27 1.28,-3.65 0.4,-2.37 0.4,-6.17 v 0 q 0,-4 -0.4,-6.4 -0.4,-2.4 -1.28,-3.68 -0.87,-1.27 -2.37,-1.72 -1.5,-0.45 -3.75,-0.45 v 0 q -2.15,0 -3.65,0.45 -1.5,0.45 -2.43,1.72 -0.92,1.28 -1.35,3.68 -0.42,2.4 -0.42,6.4 v 0 q 0,3.8 0.37,6.17 0.38,2.38 1.28,3.65 0.9,1.28 2.42,1.78 1.53,0.5 3.78,0.5 z M 197.14,0 h -7.4 v -37 h 15.3 q 2.2,0 4.1,0.52 1.9,0.53 3.35,1.83 1.45,1.3 2.27,3.6 0.83,2.3 0.83,5.9 v 0 q 0,2.55 -0.5,4.35 -0.5,1.8 -1.33,2.95 -0.82,1.15 -1.87,1.85 -1.05,0.7 -2.15,1.15 v 0 L 216.64,0 h -7.55 l -5.95,-13.7 q -0.6,0 -1.38,-0.03 -0.77,-0.02 -1.57,-0.02 -0.8,0 -1.6,0 -0.8,0 -1.45,-0.05 v 0 z m 0,-30.35 v 10.7 h 6.6 q 1,0 1.8,-0.25 0.8,-0.25 1.4,-0.88 0.6,-0.62 0.92,-1.67 0.33,-1.05 0.33,-2.7 v 0 q 0,-1.55 -0.33,-2.58 -0.32,-1.02 -0.92,-1.6 -0.6,-0.57 -1.4,-0.8 -0.8,-0.22 -1.8,-0.22 v 0 z"
                                   opacity="1"
                                   fill="#ff0000"
                                   class="undefined-text-0"
                                   data-fill-palette-color="primary"
                                   id="text-0"
                                   style="fill:#ffffff" />
                                </svg>
                                </g>
                                </svg>
                              </g>
                            </svg>
                          </g>
                        </svg>
                      </g>
                      <g
                         transform="translate(105.62274)"
                         id="g543">
                        <svg
                           viewBox="0 0 106.7526 77.132126"
                           height="77.132126"
                           width="106.7526"
                           version="1.1"
                           id="svg541">
                          <g
                             id="g539">
                            <svg
                               data-name="Layer 1"
                               viewBox="1.7599677 9 96.480072 82"
                               x="8"
                               y="0"
                               height="77.132126"
                               width="90.752602"
                               class="icon-icon-0"
                               data-fill-palette-color="accent"
                               id="icon-0"
                               version="1.1">
                              <path
                                 d="M 92.07,9 H 7.93 A 6.17,6.17 0 0 0 1.76,15.17 V 84.81 A 6.17,6.17 0 0 0 7.93,91 h 84.14 a 6.17,6.17 0 0 0 6.17,-6.17 V 15.19 A 6.17,6.17 0 0 0 92.07,9 Z m -50,8.07 v 0 a 4.265,4.265 0 0 1 0,8.53 v 0 a 4.265,4.265 0 0 1 0,-8.53 z m -12.39,0 v 0 a 4.265,4.265 0 0 1 0,8.53 v 0 a 4.265,4.265 0 0 1 0,-8.53 z m -12.39,0 v 0 a 4.265,4.265 0 0 1 0,8.53 v 0 a 4.265,4.265 0 0 1 0,-8.53 z M 85.9,48.31 V 78.64 H 14.1 V 33.7 h 71.8 z m -52.32,11.2 2.83,0.5 a 14.71,14.71 0 0 0 1.46,3.53 l -1.65,2.35 a 2.18,2.18 0 0 0 0.24,2.79 l 1.7,1.7 a 2.18,2.18 0 0 0 2.79,0.24 L 43.3,69 a 14.65,14.65 0 0 0 3.53,1.46 l 0.5,2.83 a 2.18,2.18 0 0 0 2.14,1.8 h 2.4 A 2.18,2.18 0 0 0 54,73.26 l 0.5,-2.83 A 14.62,14.62 0 0 0 58,69 l 2.35,1.65 a 2.18,2.18 0 0 0 2.79,-0.24 l 1.7,-1.7 a 2.18,2.18 0 0 0 0.24,-2.79 L 63.43,63.56 A 14.68,14.68 0 0 0 64.94,60 l 2.83,-0.5 a 2.18,2.18 0 0 0 1.8,-2.14 V 55 a 2.18,2.18 0 0 0 -1.8,-2.14 l -2.83,-0.5 a 14.66,14.66 0 0 0 -1.46,-3.53 l 1.65,-2.35 A 2.18,2.18 0 0 0 64.89,43.69 L 63.18,42 A 2.18,2.18 0 0 0 60.39,41.76 L 58,43.37 A 14.65,14.65 0 0 0 54.47,41.91 L 54,39.07 a 2.18,2.18 0 0 0 -2.14,-1.8 h -2.4 a 2.18,2.18 0 0 0 -2.14,1.8 l -0.5,2.83 a 14.69,14.69 0 0 0 -3.53,1.46 l -2.35,-1.65 a 2.18,2.18 0 0 0 -2.79,0.24 l -1.7,1.7 a 2.18,2.18 0 0 0 -0.24,2.79 l 1.65,2.35 a 14.7,14.7 0 0 0 -1.46,3.53 l -2.83,0.5 A 2.18,2.18 0 0 0 31.78,55 v 2.4 a 2.18,2.18 0 0 0 1.8,2.11 z m 17.1,-9.87 a 6.53,6.53 0 1 1 -6.53,6.53 6.53,6.53 0 0 1 6.52,-6.53 z"
                                 fill="#ed2647"
                                 data-fill-palette-color="accent"
                                 id="path536"
                                 style="fill:#ffffff" />
                            </svg>
                          </g>
                        </svg>
                      </g>
                      <g
                         id="g549">
                        <rect
                           width="44.396244"
                           height="5.0331798"
                           y="71.098946"
                           x="212.37534"
                           fill="#ca3433"
                           data-fill-palette-color="secondary"
                           id="rect545"
                           style="fill:#ffffff" />
                        <rect
                           width="44.396244"
                           height="5.0331798"
                           y="71.098946"
                           x="61.226498"
                           fill="#ca3433"
                           data-fill-palette-color="secondary"
                           id="rect547"
                           style="fill:#ffffff" />
                      </g>
                    </svg>
                  </g>
                </svg>
              </g>
              <g
                 id="g561">
                <path
                   d="m 0,247.2 c -0.15604391,-164.8 -0.07802195,-82.4 0,0 z"
                   fill="#ff0000"
                   data-fill-palette-color="tertiary"
                   id="path559"
                   sodipodi:nodetypes="cc" />
              </g>
            </svg>
          </g>
        </svg>
        <rect
           width="395.51999"
           height="247.2"
           fill="none"
           stroke="none"
           visibility="hidden"
           id="rect569"
           x="0"
           y="0" />
      </g>
    </svg>
  </g>
</svg>
